<?xml version="1.0" encoding="UTF-8"?>
<svg version="1.1" xmlns="http://www.w3.org/2000/svg" width="64" height="64">
<path d="M0 0 C0.99 0 1.98 0 3 0 C3 0.99 3 1.98 3 3 C3.61875 3.12375 4.2375 3.2475 4.875 3.375 C7 4 7 4 9 6 C9.61080416 7.79038468 10.14393179 9.60798301 10.625 11.4375 C11.01558594 12.88962891 11.01558594 12.88962891 11.4140625 14.37109375 C12 17 12 17 12 20 C10.44926853 21.55073147 8.96937747 21.12969128 6.81640625 21.1328125 C5.97142578 21.13410156 5.12644531 21.13539062 4.25585938 21.13671875 C3.36705078 21.13285156 2.47824219 21.12898438 1.5625 21.125 C0.67755859 21.12886719 -0.20738281 21.13273437 -1.11914062 21.13671875 C-1.96541016 21.13542969 -2.81167969 21.13414063 -3.68359375 21.1328125 C-4.85233032 21.13112061 -4.85233032 21.13112061 -6.04467773 21.12939453 C-8 21 -8 21 -10 20 C-9.71125 19.360625 -9.4225 18.72125 -9.125 18.0625 C-7.9112636 14.75843979 -7.26812069 11.54484196 -6.66015625 8.0859375 C-5.8823937 5.62839193 -5.04784852 4.54945647 -3 3 C-2.01 3 -1.02 3 0 3 C0 2.01 0 1.02 0 0 Z " fill="#E5E4DF" transform="translate(30,19)"/>
<path d="M0 0 C0.99 1.32 1.98 2.64 3 4 C1.35 5.32 -0.3 6.64 -2 8 C-1.125 1.125 -1.125 1.125 0 0 Z " fill="#C9CAC5" transform="translate(25,24)"/>
<path d="M0 0 C2.31 0 4.62 0 7 0 C6.67 0.99 6.34 1.98 6 3 C4.35 3 2.7 3 1 3 C0.67 2.01 0.34 1.02 0 0 Z " fill="#CCCCC9" transform="translate(28,41)"/>
</svg>
