<?xml version="1.0" encoding="UTF-8"?>
<svg version="1.1" xmlns="http://www.w3.org/2000/svg" width="64" height="64">
<path d="M0 0 C2.125 0.375 2.125 0.375 4 1 C4.33 2.65 4.66 4.3 5 6 C10.94 6 16.88 6 23 6 C23 4.35 23 2.7 23 1 C26.75 -0.125 26.75 -0.125 29 1 C28.67 4.96 28.34 8.92 28 13 C18.43 13 8.86 13 -1 13 C-1.33 9.37 -1.66 5.74 -2 2 C-1.34 1.34 -0.68 0.68 0 0 Z " fill="#F7F6F0" transform="translate(18,28)"/>
<path d="M0 0 C0.928125 -0.01224609 1.85625 -0.02449219 2.8125 -0.03710938 C3.699375 -0.03904297 4.58625 -0.04097656 5.5 -0.04296875 C6.3146875 -0.04707764 7.129375 -0.05118652 7.96875 -0.05541992 C10 0.1875 10 0.1875 12 2.1875 C12 3.1775 12 4.1675 12 5.1875 C11.01 5.5175 10.02 5.8475 9 6.1875 C8.67 7.8375 8.34 9.4875 8 11.1875 C2.72 11.1875 -2.56 11.1875 -8 11.1875 C-8.66 9.5375 -9.32 7.8875 -10 6.1875 C-10.99 5.8575 -11.98 5.5275 -13 5.1875 C-12.625 3.25 -12.625 3.25 -12 1.1875 C-8.34657606 -0.63921197 -4.02160841 0.00279278 0 0 Z " fill="#EAE8E4" transform="translate(32,21.8125)"/>
<path d="M0 0 C2.125 0.375 2.125 0.375 4 1 C4.33 2.65 4.66 4.3 5 6 C10.94 6 16.88 6 23 6 C23 6.33 23 6.66 23 7 C21.21142578 7.09087891 21.21142578 7.09087891 19.38671875 7.18359375 C17.82030075 7.26801149 16.25389512 7.35265887 14.6875 7.4375 C13.90181641 7.47681641 13.11613281 7.51613281 12.30664062 7.55664062 C11.1706543 7.61948242 11.1706543 7.61948242 10.01171875 7.68359375 C9.31522217 7.72025146 8.61872559 7.75690918 7.90112305 7.79467773 C5.7783428 7.95581153 5.7783428 7.95581153 3 9 C3 9.66 3 10.32 3 11 C9.6 11 16.2 11 23 11 C23 11.33 23 11.66 23 12 C15.08 12.33 7.16 12.66 -1 13 C-1.33 9.37 -1.66 5.74 -2 2 C-1.34 1.34 -0.68 0.68 0 0 Z " fill="#A9A7A3" transform="translate(18,28)"/>
<path d="M0 0 C1.65 0.33 3.3 0.66 5 1 C4.67 4.96 4.34 8.92 4 13 C2.2925002 11.71937515 0.62626404 10.38232443 -1 9 C-1 8.34 -1 7.68 -1 7 C-1.020625 5.989375 -1.04125 4.97875 -1.0625 3.9375 C-1 1 -1 1 0 0 Z " fill="#E3E1DE" transform="translate(42,28)"/>
<path d="M0 0 C0.99 0.33 1.98 0.66 3 1 C2.67 2.65 2.34 4.3 2 6 C1.34 6 0.68 6 0 6 C0 8.31 0 10.62 0 13 C-0.33 13 -0.66 13 -1 13 C-1.22151549 11.20991533 -1.42682213 9.41781838 -1.625 7.625 C-1.74101562 6.62726562 -1.85703125 5.62953125 -1.9765625 4.6015625 C-1.98429687 3.74304688 -1.99203125 2.88453125 -2 2 C-1.34 1.34 -0.68 0.68 0 0 Z " fill="#C2C1C0" transform="translate(18,28)"/>
<path d="M0 0 C2.475 0.495 2.475 0.495 5 1 C5 2.32 5 3.64 5 5 C3.0625 4.1875 3.0625 4.1875 1 3 C0.67 2.01 0.34 1.02 0 0 Z " fill="#DCDAD9" transform="translate(42,28)"/>
</svg>
