<?xml version="1.0" encoding="UTF-8"?>
<svg version="1.1" xmlns="http://www.w3.org/2000/svg" width="64" height="64">
<path d="M0 0 C4.29 0 8.58 0 13 0 C12.16583712 4.17081442 11.21232487 7.03530861 9.4375 10.8125 C8.98246094 11.78832031 8.52742188 12.76414062 8.05859375 13.76953125 C7.70925781 14.50558594 7.35992187 15.24164063 7 16 C4.82821515 13.26815602 3.22168743 10.62841867 1.8125 7.4375 C1.29623047 6.29087891 1.29623047 6.29087891 0.76953125 5.12109375 C0 3 0 3 0 0 Z " fill="#A6ADA2" transform="translate(25,28)"/>
<path d="M0 0 C3.625 0.375 3.625 0.375 5.5625 2.6875 C6.625 5.375 6.625 5.375 6.625 8.375 C2.335 8.375 -1.955 8.375 -6.375 8.375 C-4.21875 0.46875 -4.21875 0.46875 0 0 Z " fill="#ACB0A8" transform="translate(31.375,18.625)"/>
<path d="M0 0 C1.65 0 3.3 0 5 0 C5.86375896 1.61992165 6.71575854 3.24611861 7.5625 4.875 C8.03816406 5.77992187 8.51382812 6.68484375 9.00390625 7.6171875 C9.49697266 8.79667969 9.49697266 8.79667969 10 10 C9.67 10.66 9.34 11.32 9 12 C7.49405319 10.38050958 5.99539332 8.75424026 4.5 7.125 C3.6646875 6.22007813 2.829375 5.31515625 1.96875 4.3828125 C0 2 0 2 0 0 Z " fill="#8F968D" transform="translate(18,28)"/>
<path d="M0 0 C1.65 0 3.3 0 5 0 C4.01 2.64 3.02 5.28 2 8 C0.35 8 -1.3 8 -3 8 C-1.125 2.25 -1.125 2.25 0 0 Z " fill="#A5A6A1" transform="translate(21,19)"/>
<path d="M0 0 C1.65 0 3.3 0 5 0 C6.32 2.64 7.64 5.28 9 8 C7.02 8 5.04 8 3 8 C2.01 5.36 1.02 2.72 0 0 Z " fill="#A4A7A2" transform="translate(37,19)"/>
<path d="M0 0 C1.32 0 2.64 0 4 0 C2.63629701 2.99220268 1.05091917 5.29026529 -1.125 7.75 C-1.93324219 8.67039062 -1.93324219 8.67039062 -2.7578125 9.609375 C-3.16773438 10.06828125 -3.57765625 10.5271875 -4 11 C-4.33 10.34 -4.66 9.68 -5 9 C-4.2578125 7.08984375 -4.2578125 7.08984375 -3.125 4.9375 C-2.75632813 4.22464844 -2.38765625 3.51179688 -2.0078125 2.77734375 C-1 1 -1 1 0 0 Z " fill="#9EA29A" transform="translate(41,28)"/>
<path d="M0 0 C1.65 0 3.3 0 5 0 C4.67 1.65 4.34 3.3 4 5 C2 3.625 2 3.625 0 2 C0 1.34 0 0.68 0 0 Z " fill="#9D9F99" transform="translate(18,28)"/>
<path d="" fill="#666B61" transform="translate(0,0)"/>
</svg>
