<?xml version="1.0" encoding="UTF-8"?>
<svg version="1.1" xmlns="http://www.w3.org/2000/svg" width="64" height="64">
<path d="M0 0 C3.83878357 1.08075442 5.44369508 0.42992091 9.125 -1.0625 C11.46670529 0.05513207 13.28824361 1.10074361 15.125 2.9375 C15.625 6.0625 15.625 6.0625 15.125 9.9375 C13.10110101 12.62843049 10.65794956 14.73425255 8.125 16.9375 C7.13731404 17.90807259 6.15686873 18.88613247 5.1875 19.875 C4.506875 20.555625 3.82625 21.23625 3.125 21.9375 C0.76433171 19.96794835 -1.55818075 17.95835831 -3.875 15.9375 C-4.46925781 15.44636719 -5.06351563 14.95523438 -5.67578125 14.44921875 C-8.70464697 11.76733526 -9.82034265 10.2958093 -10.4375 6.25 C-9.875 2.9375 -9.875 2.9375 -8.5625 1.0625 C-5.35166338 -1.07805775 -3.51507426 -1.1420572 0 0 Z " fill="#EBE9E5" transform="translate(28.875,21.0625)"/>
</svg>
