<?xml version="1.0" encoding="UTF-8"?>
<svg version="1.1" xmlns="http://www.w3.org/2000/svg" width="64" height="64">
<path d="M0 0 C1.32 0.33 2.64 0.66 4 1 C5.125 5.75 5.125 5.75 4 8 C6.97 8.495 6.97 8.495 10 9 C10.95912493 12.75544692 10.95076397 15.47184703 10.125 19.25 C9.94195312 20.12140625 9.75890625 20.9928125 9.5703125 21.890625 C9 24 9 24 8 25 C6.109375 25.16796875 6.109375 25.16796875 3.75 25.1875 C2.98171875 25.20167969 2.2134375 25.21585938 1.421875 25.23046875 C-1.34259079 24.96739862 -3.47717307 24.13169364 -6 23 C-6.10864945 20.93867858 -6.18588321 18.87568679 -6.25 16.8125 C-6.29640625 15.66394531 -6.3428125 14.51539063 -6.390625 13.33203125 C-5.92420948 9.35350687 -4.66449676 7.90672374 -2 5 C-0.75983331 2.3205355 -0.75983331 2.3205355 0 0 Z " fill="#B1B8AE" transform="translate(33,19)"/>
<path d="M0 0 C1.98 0 3.96 0 6 0 C6 4.62 6 9.24 6 14 C4.02 14 2.04 14 0 14 C0 9.38 0 4.76 0 0 Z " fill="#AFB1AA" transform="translate(19,30)"/>
<path d="M0 0 C1.32 0.33 2.64 0.66 4 1 C5.125 5.75 5.125 5.75 4 8 C5.32 8.33 6.64 8.66 8 9 C6.35 9 4.7 9 3 9 C2.34 7.68 1.68 6.36 1 5 C0.01 5.66 -0.98 6.32 -2 7 C-1.34 4.69 -0.68 2.38 0 0 Z " fill="#949791" transform="translate(33,19)"/>
</svg>
