<?xml version="1.0" encoding="UTF-8"?>
<svg version="1.1" xmlns="http://www.w3.org/2000/svg" width="64" height="64">
<path d="M0 0 C15.18 0 30.36 0 46 0 C46 15.84 46 31.68 46 48 C30.82 48 15.64 48 0 48 C0 32.16 0 16.32 0 0 Z M2 3 C2 16.86 2 30.72 2 45 C15.86 45 29.72 45 44 45 C44 31.14 44 17.28 44 3 C30.14 3 16.28 3 2 3 Z " fill="#C09E5C" transform="translate(9,8)"/>
<path d="M0 0 C0.33 0 0.66 0 1 0 C1.33 14.85 1.66 29.7 2 45 C-4.88875 45.020625 -11.7775 45.04125 -18.875 45.0625 C-21.0494873 45.071604 -23.22397461 45.08070801 -25.46435547 45.09008789 C-27.18196552 45.09300765 -28.89957625 45.09555607 -30.6171875 45.09765625 C-31.9621228 45.1053302 -31.9621228 45.1053302 -33.33422852 45.11315918 C-34.61293823 45.11334045 -34.61293823 45.11334045 -35.91748047 45.11352539 C-36.65916473 45.115746 -37.400849 45.11796661 -38.16500854 45.12025452 C-40 45 -40 45 -42 44 C-42 43.34 -42 42.68 -42 42 C-28.14 42 -14.28 42 0 42 C0 28.14 0 14.28 0 0 Z " fill="#DAB971" transform="translate(53,11)"/>
<path d="M0 0 C0.66 0 1.32 0 2 0 C2 15.18 2 30.36 2 46 C1.67 46 1.34 46 1 46 C1 31.81 1 17.62 1 3 C-13.19 3 -27.38 3 -42 3 C-42 2.67 -42 2.34 -42 2 C-40.7632251 1.97494385 -39.5264502 1.9498877 -38.25219727 1.92407227 C-33.68063287 1.83017747 -29.10922682 1.72991371 -24.5378418 1.62768555 C-22.55610854 1.58426856 -20.57433622 1.54259863 -18.5925293 1.50268555 C-15.7503683 1.44514617 -12.90840517 1.38140555 -10.06640625 1.31640625 C-8.72891075 1.29133751 -8.72891075 1.29133751 -7.36439514 1.26576233 C-3.36051605 1.563413 -3.36051605 1.563413 0 0 Z " fill="#7D6930" transform="translate(53,8)"/>
<path d="M0 0 C4 2 4 2 5 3 C5.33 2.01 5.66 1.02 6 0 C6.99 0 7.98 0 9 0 C9 2.97 9 5.94 9 9 C5 8 5 8 4 7 C3.67 7.66 3.34 8.32 3 9 C2.01 9 1.02 9 0 9 C0 6.03 0 3.06 0 0 Z " fill="#CAB983" transform="translate(28,18)"/>
<path d="M0 0 C0.33 0 0.66 0 1 0 C1.33 14.85 1.66 29.7 2 45 C-0.97 45 -3.94 45 -7 45 C-6.34 44.34 -5.68 43.68 -5 43 C-3.35 43 -1.7 43 0 43 C0 28.81 0 14.62 0 0 Z " fill="#C3984D" transform="translate(53,11)"/>
<path d="M0 0 C2.97 0.495 2.97 0.495 6 1 C6.33 2.98 6.66 4.96 7 7 C5.3125 8.625 5.3125 8.625 3 10 C0.3125 9.4375 0.3125 9.4375 -2 8 C-3 6.125 -3 6.125 -3 4 C-1.5625 1.75 -1.5625 1.75 0 0 Z M0 3 C0.33 4.32 0.66 5.64 1 7 C2.32 6.67 3.64 6.34 5 6 C4.34 4.68 3.68 3.36 3 2 C1.7763932 1.9254644 1.7763932 1.9254644 0 3 Z " fill="#C7AD70" transform="translate(20,18)"/>
<path d="M0 0 C2.31 0 4.62 0 7 0 C6.814375 0.928125 6.62875 1.85625 6.4375 2.8125 C5.75876119 6.01343771 5.75876119 6.01343771 7 9 C4.69 9 2.38 9 0 9 C0 6.03 0 3.06 0 0 Z " fill="#B8A068" transform="translate(38,18)"/>
<path d="M0 0 C0.99 0.495 0.99 0.495 2 1 C2.625 4.0625 2.625 4.0625 3 7 C3.33 7 3.66 7 4 7 C4.33 4.69 4.66 2.38 5 0 C5.99 0.33 6.98 0.66 8 1 C8.36075949 6.41139241 8.36075949 6.41139241 6.8125 8.9375 C5 10 5 10 2.3125 9.6875 C1.549375 9.460625 0.78625 9.23375 0 9 C0 6.03 0 3.06 0 0 Z " fill="#D5BB79" transform="translate(27,28)"/>
<path d="M0 0 C0.5775 0.37125 1.155 0.7425 1.75 1.125 C4 2.29166667 4 2.29166667 6.25 1.125 C6.8275 0.75375 7.405 0.3825 8 0 C7.814375 0.9075 7.62875 1.815 7.4375 2.75 C7.04265379 5.68314324 7.05308428 7.2644657 8 10 C7.01 9.67 6.02 9.34 5 9 C5 8.34 5 7.68 5 7 C4.34 7 3.68 7 3 7 C2.67 7.99 2.34 8.98 2 10 C1.34 10 0.68 10 0 10 C0.185625 8.906875 0.37125 7.81375 0.5625 6.6875 C1.2578068 3.06375867 1.2578068 3.06375867 0 0 Z " fill="#A0864E" transform="translate(36,28)"/>
<path d="M0 0 C0.99 0.33 1.98 0.66 3 1 C3 2.98 3 4.96 3 7 C4.32 7 5.64 7 7 7 C7 7.99 7 8.98 7 10 C4.69 10 2.38 10 0 10 C0 6.7 0 3.4 0 0 Z " fill="#C7A25B" transform="translate(19,28)"/>
<path d="M0 0 C0.66 0 1.32 0 2 0 C5 5.75 5 5.75 5 8 C2.36 8 -0.28 8 -3 8 C-1.125 2.25 -1.125 2.25 0 0 Z " fill="#AA9765" transform="translate(34,39)"/>
<path d="M0 0 C0 1.98 0 3.96 0 6 C-1.65 6.33 -3.3 6.66 -5 7 C-5 6.01 -5 5.02 -5 4 C-5.3062434 2.66018514 -5.63451555 1.32488113 -6 0 C-3.50907189 -1.24546405 -2.58919267 -0.7767578 0 0 Z " fill="#AD955D" transform="translate(25,40)"/>
<path d="M0 0 C0.66 0 1.32 0 2 0 C2.33 0.66 2.66 1.32 3 2 C4.32 1.34 5.64 0.68 7 0 C6.5359375 1.1446875 6.5359375 1.1446875 6.0625 2.3125 C5.32106407 4.18789677 4.63771783 6.08684652 4 8 C3.34 8 2.68 8 2 8 C1.34 5.36 0.68 2.72 0 0 Z " fill="#A78F57" transform="translate(38,39)"/>
<path d="M0 0 C1.98 0 3.96 0 6 0 C6 0.66 6 1.32 6 2 C5.34 2 4.68 2 4 2 C4 3.98 4 5.96 4 8 C3.34 8 2.68 8 2 8 C2 6.02 2 4.04 2 2 C1.34 2 0.68 2 0 2 C0 1.34 0 0.68 0 0 Z " fill="#DDCD97" transform="translate(26,39)"/>
<path d="M0 0 C0.99 0.33 1.98 0.66 3 1 C3.125 3.875 3.125 3.875 3 7 C2.34 7.66 1.68 8.32 1 9 C0.34 8.34 -0.32 7.68 -1 7 C-0.625 3.375 -0.625 3.375 0 0 Z " fill="#E0CE8D" transform="translate(32,28)"/>
<path d="M0 0 C0.99 0.33 1.98 0.66 3 1 C3 1.99 3 2.98 3 4 C3.66 4 4.32 4 5 4 C5 4.66 5 5.32 5 6 C4.34 6 3.68 6 3 6 C2.67 7.32 2.34 8.64 2 10 C1.34 10 0.68 10 0 10 C0.185625 8.906875 0.37125 7.81375 0.5625 6.6875 C1.2578068 3.06375867 1.2578068 3.06375867 0 0 Z " fill="#BFA668" transform="translate(36,28)"/>
<path d="M0 0 C0.66 0 1.32 0 2 0 C2 5.61 2 11.22 2 17 C1.67 17 1.34 17 1 17 C0.83201949 14.72926348 0.66565887 12.45840707 0.5 10.1875 C0.4071875 8.92292969 0.314375 7.65835937 0.21875 6.35546875 C0.08085219 4.24021483 0 2.11974408 0 0 Z " fill="#9D7A3B" transform="translate(53,8)"/>
<path d="M0 0 C0.99 0.33 1.98 0.66 3 1 C2.67 1.66 2.34 2.32 2 3 C1.34 3 0.68 3 0 3 C0.33 4.32 0.66 5.64 1 7 C0.01 7.33 -0.98 7.66 -2 8 C-2.6875 6.25 -2.6875 6.25 -3 4 C-1.5625 1.75 -1.5625 1.75 0 0 Z " fill="#AD925A" transform="translate(20,18)"/>
<path d="M0 0 C1.65 0 3.3 0 5 0 C5 0.99 5 1.98 5 3 C2.69 3 0.38 3 -2 3 C-1.34 2.67 -0.68 2.34 0 2 C0 1.34 0 0.68 0 0 Z " fill="#E2D093" transform="translate(21,35)"/>
</svg>
