<?xml version="1.0" encoding="UTF-8"?>
<svg version="1.1" xmlns="http://www.w3.org/2000/svg" width="64" height="64">
<path d="M0 0 C3.4375 0.875 3.4375 0.875 5.4375 3.875 C5.11722144 7.63827304 4.32399506 10.60507522 2.4375 13.875 C3.0975 13.875 3.7575 13.875 4.4375 13.875 C4.4375 17.505 4.4375 21.135 4.4375 24.875 C0.96808454 24.41677532 -2.23645049 23.98368317 -5.5625 22.875 C-5.5625 19.245 -5.5625 15.615 -5.5625 11.875 C-5.624375 13.463125 -5.68625 15.05125 -5.75 16.6875 C-6.23369885 21.5728584 -6.23369885 21.5728584 -8.875 24 C-11.5625 24.875 -11.5625 24.875 -15.5625 24.875 C-15.5625 20.255 -15.5625 15.635 -15.5625 10.875 C-9.5625 7.875 -9.5625 7.875 -7.5625 7.875 C-7.459375 7.111875 -7.35625 6.34875 -7.25 5.5625 C-6.04377683 0.84726397 -4.96935361 -0.17436328 0 0 Z " fill="#C4C3C0" transform="translate(32.5625,19.125)"/>
<path d="M0 0 C2 3 2 3 1.75 5.9375 C1.09911834 8.59526679 0.35855538 10.64517067 -1 13 C-0.34 13 0.32 13 1 13 C1 16.63 1 20.26 1 24 C-2.46941546 23.54177532 -5.67395049 23.10868317 -9 22 C-9 18.7 -9 15.4 -9 12 C-6.525 12.99 -6.525 12.99 -4 14 C-4.144375 13.278125 -4.28875 12.55625 -4.4375 11.8125 C-4.623125 10.884375 -4.80875 9.95625 -5 9 C-5.309375 7.6696875 -5.309375 7.6696875 -5.625 6.3125 C-6 4 -6 4 -5 2 C-6.32 2 -7.64 2 -9 2 C-9 1.34 -9 0.68 -9 0 C-5.85135005 -1.57432497 -3.35512575 -0.71895552 0 0 Z " fill="#E2E3DE" transform="translate(36,20)"/>
<path d="M0 0 C0 4.62 0 9.24 0 14 C-6 17 -6 17 -8 17 C-8 12.05 -8 7.1 -8 2 C-3 0 -3 0 0 0 Z " fill="#E4E3E0" transform="translate(46,27)"/>
<path d="M0 0 C0.99 0.99 1.98 1.98 3 3 C3.99 3 4.98 3 6 3 C6.66 2.01 7.32 1.02 8 0 C8.66 0 9.32 0 10 0 C10 3.63 10 7.26 10 11 C6.53058454 10.54177532 3.32604951 10.10868317 0 9 C0 6.03 0 3.06 0 0 Z " fill="#EEEBE5" transform="translate(27,33)"/>
<path d="M0 0 C1.65 0 3.3 0 5 0 C5 2.31 5 4.62 5 7 C5.99 7.33 6.98 7.66 8 8 C7.34 9.65 6.68 11.3 6 13 C1.125 9.25 1.125 9.25 0 7 C-0.04022391 4.6670134 -0.04320247 2.33293334 0 0 Z " fill="#E6E6E0" transform="translate(26,22)"/>
<path d="M0 0 C0.33 0.66 0.66 1.32 1 2 C-0.32 2.33 -1.64 2.66 -3 3 C-3 4.32 -3 5.64 -3 7 C-3.99 7 -4.98 7 -6 7 C-5.67 5.35 -5.34 3.7 -5 2 C-6.32 2 -7.64 2 -9 2 C-9 1.34 -9 0.68 -9 0 C-5.88173308 -1.55913346 -3.32926126 -0.66585225 0 0 Z " fill="#A4A4A2" transform="translate(36,20)"/>
<path d="M0 0 C0.33 0 0.66 0 1 0 C1 3.63 1 7.26 1 11 C-1.31 10.67 -3.62 10.34 -6 10 C-5.01 9.67 -4.02 9.34 -3 9 C-3 8.34 -3 7.68 -3 7 C-2.34 7 -1.68 7 -1 7 C-0.67 4.69 -0.34 2.38 0 0 Z " fill="#A9A7A3" transform="translate(36,33)"/>
<path d="M0 0 C0.66 0 1.32 0 2 0 C2.06058594 0.62648438 2.12117188 1.25296875 2.18359375 1.8984375 C2.26738281 2.71570312 2.35117187 3.53296875 2.4375 4.375 C2.51871094 5.18710937 2.59992187 5.99921875 2.68359375 6.8359375 C2.89090114 9.04272805 2.89090114 9.04272805 4 11 C3.01 11 2.02 11 1 11 C0.67 11.66 0.34 12.32 0 13 C0 8.71 0 4.42 0 0 Z " fill="#F4F4F2" transform="translate(18,31)"/>
<path d="M0 0 C1.65 0 3.3 0 5 0 C5.33 1.65 5.66 3.3 6 5 C4.125 4.75 4.125 4.75 2 4 C0.75 1.9375 0.75 1.9375 0 0 Z " fill="#DFDFDD" transform="translate(32,22)"/>
<path d="M0 0 C1.175625 0.5259375 1.175625 0.5259375 2.375 1.0625 C3.674375 1.5265625 3.674375 1.5265625 5 2 C5.66 1.67 6.32 1.34 7 1 C6.67 2.32 6.34 3.64 6 5 C4.125 4.75 4.125 4.75 2 4 C0.75 1.9375 0.75 1.9375 0 0 Z " fill="#5B5751" transform="translate(27,32)"/>
<path d="M0 0 C1.98 0.99 1.98 0.99 4 2 C3.34 3.65 2.68 5.3 2 7 C1.34 6.67 0.68 6.34 0 6 C0 4.02 0 2.04 0 0 Z " fill="#F8F6F0" transform="translate(30,28)"/>
</svg>
